<?xml version="1.0" standalone="no"?>
<!DOCTYPE svg PUBLIC "-//W3C//DTD SVG 20010904//EN"
 "http://www.w3.org/TR/2001/REC-SVG-20010904/DTD/svg10.dtd">
<svg version="1.0" xmlns="http://www.w3.org/2000/svg"
 width="100.000000pt" height="100.000000pt" viewBox="0 0 100.000000 100.000000"
 preserveAspectRatio="xMidYMid meet">
<metadata>
Created by potrace 1.16, written by Peter Selinger 2001-2019
</metadata>
<g transform="translate(0.000000,100.000000) scale(0.100000,-0.100000)"
fill="#000000" stroke="none">
<path d="M360 838 c-77 -30 -169 -123 -198 -201 -30 -79 -30 -195 0 -274 29
-80 121 -172 201 -201 79 -30 195 -30 274 0 80 29 172 121 201 201 30 79 30
195 0 274 -29 80 -121 172 -201 201 -78 30 -200 29 -277 0z m201 -137 c20 -20
29 -39 29 -61 0 -22 -9 -41 -29 -61 -40 -39 -82 -39 -122 0 -20 20 -29 39 -29
61 0 22 9 41 29 61 40 39 82 39 122 0z m-162 -106 c30 -85 168 -87 201 -3 8
18 14 34 15 35 1 2 28 -4 60 -12 77 -20 134 -53 151 -87 l15 -28 -341 0 -341
0 15 28 c17 33 74 67 147 86 30 8 56 15 59 15 4 1 12 -15 19 -34z m429 -122
c-5 -26 -63 -61 -142 -86 -100 -31 -272 -31 -372 0 -79 25 -137 60 -142 86 -3
16 20 17 328 17 308 0 331 -1 328 -17z m-494 -114 c46 -10 57 -17 67 -42 14
-34 63 -67 99 -67 36 0 85 33 99 67 10 25 21 32 67 42 30 7 79 25 110 41 l56
28 -7 -27 c-19 -78 -97 -166 -184 -209 -48 -23 -69 -27 -141 -27 -72 0 -93 4
-140 27 -70 35 -136 99 -166 163 -13 28 -24 55 -24 61 0 6 25 -2 55 -17 30
-15 79 -33 109 -40z"/>
</g>
</svg>
