<?xml version="1.0" standalone="no"?>
<!DOCTYPE svg PUBLIC "-//W3C//DTD SVG 20010904//EN"
 "http://www.w3.org/TR/2001/REC-SVG-20010904/DTD/svg10.dtd">
<svg version="1.0" xmlns="http://www.w3.org/2000/svg"
 width="96.000000pt" height="96.000000pt" viewBox="0 0 96.000000 96.000000"
 preserveAspectRatio="xMidYMid meet">
<metadata>
Created by potrace 1.16, written by Peter Selinger 2001-2019
</metadata>
<g transform="translate(0.000000,96.000000) scale(0.100000,-0.100000)"
fill="#000000" stroke="none">
<path d="M442 768 c-5 -13 -24 -84 -42 -158 -18 -74 -34 -137 -36 -139 -2 -2
-56 31 -122 73 -65 42 -126 76 -135 76 -28 0 -20 -35 47 -210 l63 -165 -109
-34 c-149 -47 -147 -55 37 -139 183 -84 193 -85 228 -35 15 22 27 42 27 45 0
3 -18 13 -40 23 -49 22 -43 35 16 35 24 0 44 2 44 4 0 2 -14 35 -30 72 -34 74
-35 74 41 6 l26 -23 6 38 c4 21 7 56 7 78 1 52 15 28 25 -40 11 -82 15 -84 85
-30 l62 48 -41 -75 c-23 -41 -41 -78 -41 -81 0 -4 28 -7 63 -8 l62 -1 -57 -26
c-32 -15 -58 -31 -58 -36 0 -19 54 -66 75 -66 26 0 112 34 228 90 104 51 112
70 42 100 -25 11 -65 29 -90 39 l-44 20 83 173 c46 95 81 179 79 186 -10 24
-40 11 -192 -78 -84 -50 -155 -89 -157 -87 -3 2 -28 80 -57 173 -39 126 -57
170 -70 172 -10 2 -20 -5 -25 -20z"/>
</g>
</svg>
