<?xml version="1.0" standalone="no"?>
<!DOCTYPE svg PUBLIC "-//W3C//DTD SVG 20010904//EN"
 "http://www.w3.org/TR/2001/REC-SVG-20010904/DTD/svg10.dtd">
<svg version="1.0" xmlns="http://www.w3.org/2000/svg"
 width="100.000000pt" height="100.000000pt" viewBox="0 0 100.000000 100.000000"
 preserveAspectRatio="xMidYMid meet">
<metadata>
Created by potrace 1.16, written by Peter Selinger 2001-2019
</metadata>
<g transform="translate(0.000000,100.000000) scale(0.100000,-0.100000)"
fill="#000000" stroke="none">
<path d="M360 838 c-77 -30 -169 -123 -198 -201 -30 -79 -30 -195 0 -274 29
-80 121 -172 201 -201 79 -30 195 -30 274 0 80 29 172 121 201 201 30 79 30
195 0 274 -29 80 -121 172 -201 201 -78 30 -200 29 -277 0z m201 -277 c20 -20
29 -39 29 -61 0 -43 -47 -90 -90 -90 -43 0 -90 47 -90 90 0 22 9 41 29 61 20
20 39 29 61 29 22 0 41 -9 61 -29z m-161 -102 c15 -36 63 -69 100 -69 37 0 85
33 100 69 l12 31 115 0 116 0 -7 -42 c-16 -105 -93 -206 -194 -255 -49 -24
-69 -28 -142 -28 -72 0 -93 4 -140 27 -103 51 -179 150 -196 256 l-7 42 116 0
115 0 12 -31z"/>
</g>
</svg>
