<?xml version="1.0" standalone="no"?>
<!DOCTYPE svg PUBLIC "-//W3C//DTD SVG 20010904//EN"
 "http://www.w3.org/TR/2001/REC-SVG-20010904/DTD/svg10.dtd">
<svg version="1.0" xmlns="http://www.w3.org/2000/svg"
 width="80.000000pt" height="80.000000pt" viewBox="0 0 80.000000 80.000000"
 preserveAspectRatio="xMidYMid meet">
<metadata>
Created by potrace 1.16, written by Peter Selinger 2001-2019
</metadata>
<g transform="translate(0.000000,80.000000) scale(0.100000,-0.100000)"
fill="#000000" stroke="none">
<path d="M378 776 c-72 -30 -143 -82 -209 -154 -114 -124 -169 -243 -169 -364
0 -61 2 -68 20 -68 18 0 20 7 20 58 0 201 196 416 390 430 60 4 68 2 98 -23
46 -39 58 -88 38 -157 -21 -74 -112 -195 -132 -176 -2 2 14 28 36 57 76 102
77 191 0 244 -60 41 -168 2 -260 -93 -135 -142 -173 -309 -100 -437 41 -72 93
-96 198 -92 111 6 191 47 297 153 132 132 195 258 195 388 0 60 -2 68 -19 68
-16 0 -19 -9 -23 -73 -9 -194 -198 -397 -385 -414 -139 -13 -200 86 -134 215
28 55 101 142 118 142 12 0 9 -8 -11 -32 -37 -45 -76 -127 -76 -161 0 -45 26
-94 59 -111 71 -37 163 -3 257 95 75 79 108 136 130 218 31 123 -12 248 -99
290 -61 30 -163 28 -239 -3z"/>
</g>
</svg>
