<?xml version="1.0" standalone="no"?>
<!DOCTYPE svg PUBLIC "-//W3C//DTD SVG 20010904//EN"
 "http://www.w3.org/TR/2001/REC-SVG-20010904/DTD/svg10.dtd">
<svg version="1.0" xmlns="http://www.w3.org/2000/svg"
 width="90.000000pt" height="90.000000pt" viewBox="0 0 90.000000 90.000000"
 preserveAspectRatio="xMidYMid meet">
<metadata>
Created by potrace 1.16, written by Peter Selinger 2001-2019
</metadata>
<g transform="translate(0.000000,90.000000) scale(0.100000,-0.100000)"
fill="#000000" stroke="none">
<path d="M360 480 l0 -270 80 0 80 0 0 254 c0 140 -3 261 -6 270 -5 13 -22 16
-80 16 l-74 0 0 -270z"/>
<path d="M30 390 l0 -300 380 0 380 0 0 30 0 30 -345 0 -345 0 0 270 0 270
-35 0 -35 0 0 -300z"/>
<path d="M570 450 l0 -240 80 0 80 0 0 224 c0 123 -3 231 -6 240 -5 13 -22 16
-80 16 l-74 0 0 -240z"/>
<path d="M150 390 l0 -180 80 0 80 0 0 164 c0 90 -3 171 -6 180 -5 13 -22 16
-80 16 l-74 0 0 -180z"/>
</g>
</svg>
